<mxfile host="app.diagrams.net" modified="2024-04-19T15:46:32.254Z" agent="Mozilla/5.0 (Macintosh; Intel Mac OS X 10_15_7) AppleWebKit/537.36 (KHTML, like Gecko) Chrome/123.0.0.0 Safari/537.36" version="24.2.5" etag="61WrPpe7obyAWfe3oTqz" type="github">
  <diagram name="第 1 页" id="zsQW8LdxGzVeXRZohL1c">
    <mxGraphModel>
      <root>
        <mxCell id="0" />
        <mxCell id="1" parent="0" />
      </root>
    </mxGraphModel>
  </diagram>
</mxfile>
